<svg xmlns="http://www.w3.org/2000/svg" viewBox="0 0 215 85">
  <g fill="#000" fill-rule="nonzero">
    <path d="M2.007 37.185c.813.566 1.911 1.07 3.294 1.514 1.383.444 2.949.667 4.697.667 2.075 0 3.722-.364 4.942-1.09 1.22-.727 2.145-1.807 2.775-3.24.63-1.434 1.048-3.2 1.25-5.3.204-2.1.306-4.522.306-7.267V.606h5.49V22.47c0 3.27-.152 6.248-.457 8.933-.305 2.685-.976 4.976-2.013 6.873-1.037 1.898-2.522 3.372-4.454 4.421-1.931 1.05-4.544 1.575-7.839 1.575-3.66 0-6.791-.888-9.394-2.665l1.403-4.42zM46.643.606h4.611l17.594 43.059h-5.824L57.928 31.05h-18.08l-5.035 12.615h-5.824L46.643.606zm10.73 26.078L49.347 6.67l-8.279 20.013h16.307zm54.308 16.98V10.37L97.307 35.902H94.2L79.765 10.37v33.295h-5.481V.606h5.786l15.653 27.958L111.438.606h5.725v43.059h-5.482zm44.738-4.851v4.852h-28.99V.606h28.448v4.852h-23.034v13.948h20.027v4.549h-20.027v14.858h23.576zm32.95-29.37c-.486-.572-1.134-1.124-1.943-1.656a17.23 17.23 0 00-2.733-1.44 19.073 19.073 0 00-3.31-1.043 17.15 17.15 0 00-3.734-.399c-3.36 0-5.82.634-7.378 1.901-1.559 1.267-2.338 3.005-2.338 5.212 0 1.186.223 2.167.668 2.943.445.777 1.144 1.441 2.095 1.993.951.552 2.135 1.032 3.552 1.441a98.95 98.95 0 005.04 1.288c2.227.49 4.241 1.052 6.043 1.686 1.801.634 3.34 1.42 4.615 2.36 1.275.94 2.246 2.086 2.914 3.434.668 1.35 1.002 3.005 1.002 4.967 0 2.085-.404 3.894-1.214 5.427a10.845 10.845 0 01-3.31 3.801c-1.396 1.002-3.046 1.738-4.949 2.208-1.902.47-3.967.705-6.194.705-3.32 0-6.467-.521-9.442-1.564a26.322 26.322 0 01-8.107-4.568l2.611-4.66c.648.695 1.488 1.39 2.52 2.085 1.033.695 2.207 1.318 3.522 1.87a25.927 25.927 0 004.251 1.35c1.518.347 3.107.52 4.767.52 3.077 0 5.465-.552 7.165-1.655 1.7-1.104 2.55-2.76 2.55-4.967 0-1.226-.272-2.258-.819-3.096-.546-.838-1.346-1.564-2.399-2.177-1.052-.613-2.358-1.155-3.916-1.625-1.247-.376-2.63-.759-4.149-1.148l-1.165-.293c-2.186-.532-4.109-1.104-5.769-1.717-1.66-.613-3.046-1.349-4.16-2.207-1.112-.859-1.952-1.901-2.52-3.128-.566-1.226-.85-2.698-.85-4.414 0-2.085.385-3.925 1.154-5.519a11.563 11.563 0 013.219-4.047c1.376-1.104 3.016-1.931 4.918-2.483C173.48.276 175.544 0 177.77 0c2.915 0 5.547.45 7.895 1.349 2.348.9 4.432 2.105 6.254 3.618l-2.55 4.476zM28.385 47.91v36.387h-2.576V66.872H3.18v17.425H.604V47.91H3.18v16.604h22.629V47.91h2.576zm24.433 36.993c-2.554 0-4.883-.53-6.988-1.593a18.048 18.048 0 01-5.436-4.161c-1.518-1.713-2.691-3.683-3.52-5.909a19.453 19.453 0 01-1.242-6.834c0-2.432.44-4.76 1.32-6.987.88-2.227 2.088-4.196 3.624-5.909a17.331 17.331 0 015.46-4.085c2.106-1.01 4.384-1.515 6.834-1.515 2.554 0 4.892.54 7.014 1.618 2.123 1.08 3.934 2.492 5.436 4.239a19.56 19.56 0 013.494 5.934c.828 2.21 1.242 4.445 1.242 6.705 0 2.467-.44 4.813-1.32 7.04-.88 2.226-2.088 4.187-3.623 5.883a17.517 17.517 0 01-5.462 4.059c-2.105 1.01-4.383 1.515-6.833 1.515zM38.652 66.406c0 2.088.345 4.1 1.035 6.033.69 1.934 1.667 3.646 2.93 5.135a14.453 14.453 0 004.52 3.568c1.75.89 3.67 1.335 5.758 1.335 2.155 0 4.1-.462 5.833-1.386a14.285 14.285 0 004.445-3.671 17.253 17.253 0 002.853-5.16 17.542 17.542 0 001.01-5.854c0-2.088-.353-4.099-1.06-6.033-.707-1.934-1.692-3.645-2.955-5.134a14.647 14.647 0 00-4.47-3.569c-1.717-.89-3.602-1.335-5.656-1.335-2.155 0-4.108.463-5.86 1.387a14.478 14.478 0 00-4.494 3.671 16.955 16.955 0 00-2.88 5.16 17.542 17.542 0 00-1.01 5.853zm50.935-18.24h2.531l5.366 13.222 5.367-13.222h2.531L99.054 63.49l7.543 17.732 13.77-33.312h2.835l-15.39 36.387h-2.38L97.536 65.59l-7.948 18.706h-2.38L71.869 47.91h2.784l13.821 33.312 7.442-17.732-6.328-15.324zm63.812 33.773v2.358h-24.761V47.91h24.29v2.357h-21.62v14.299h18.898v2.255h-18.899v15.118H153.4zm6.643 2.358V47.91h2.659v34.03h22.102v2.357h-24.76zm29.593 0V47.91h2.658v34.03h22.103v2.357h-24.761z"/>
  </g>
</svg>